<?xml version="1.0" encoding="UTF-8" standalone="no"?>
<!-- Created with Inkscape (http://www.inkscape.org/) -->

<svg
   xmlns:dc="http://purl.org/dc/elements/1.1/"
   xmlns:cc="http://creativecommons.org/ns#"
   xmlns:rdf="http://www.w3.org/1999/02/22-rdf-syntax-ns#"
   xmlns:svg="http://www.w3.org/2000/svg"
   xmlns="http://www.w3.org/2000/svg"
   xmlns:sodipodi="http://sodipodi.sourceforge.net/DTD/sodipodi-0.dtd"
   xmlns:inkscape="http://www.inkscape.org/namespaces/inkscape"
   width="290.73334"
   height="35.7076"
   viewBox="0 0 290.73334 35.7076"
   version="1.1"
   id="svg8"
   inkscape:version="0.92.5 (2060ec1f9f, 2020-04-08)"
   sodipodi:docname="logo.svg">
  <defs
     id="defs2" />
  <sodipodi:namedview
     id="base"
     pagecolor="#330033"
     bordercolor="#666666"
     borderopacity="1.0"
     inkscape:pageopacity="0"
     inkscape:pageshadow="2"
     inkscape:zoom="1.4"
     inkscape:cx="221.52595"
     inkscape:cy="-30.788636"
     inkscape:document-units="px"
     inkscape:current-layer="layer1"
     showgrid="false"
     units="px"
     inkscape:showpageshadow="false"
     inkscape:window-width="1366"
     inkscape:window-height="704"
     inkscape:window-x="0"
     inkscape:window-y="27"
     inkscape:window-maximized="1"
     fit-margin-top="0"
     fit-margin-left="0"
     fit-margin-right="0"
     fit-margin-bottom="0" />
  <metadata
     id="metadata5">
    <rdf:RDF>
      <cc:Work
         rdf:about="">
        <dc:format>image/svg+xml</dc:format>
        <dc:type
           rdf:resource="http://purl.org/dc/dcmitype/StillImage" />
        <dc:title />
      </cc:Work>
    </rdf:RDF>
  </metadata>
  <g
     inkscape:label="Layer 1"
     inkscape:groupmode="layer"
     id="layer1"
     transform="translate(-30.294391,-295.76321)"
     style="opacity:0.98000004">
    <g
       aria-label="&lt;DWLATINO&gt;"
       transform="matrix(1.2195218,0,0,1.2195218,18.17554,292.82551)"
       style="font-style:normal;font-variant:normal;font-weight:bold;font-stretch:normal;font-size:6.66666651px;line-height:1.25;font-family:sans-serif;-inkscape-font-specification:'sans-serif Bold';letter-spacing:0px;word-spacing:0px;fill:#ffffff;fill-opacity:1;stroke:none;stroke-width:0.8199935"
       id="flowRoot842">
      <path
         d="M 9.9373792,3.048897 H 23.737379 q 4.68,0 8.24,1.72 3.6,1.68 5.56,4.84 2,3.16 2,7.44 0,4.28 -2,7.44 -1.96,3.16 -5.56,4.88 -3.56,1.68 -8.24,1.68 H 9.9373792 Z m 13.3999998,20.64 q 3.04,0 4.84,-1.72 1.84,-1.76 1.84,-4.92 0,-3.16 -1.84,-4.88 -1.8,-1.76 -4.84,-1.76 h -3.96 v 13.28 z"
         style="font-style:normal;font-variant:normal;font-weight:900;font-stretch:normal;font-size:40px;font-family:Montserrat;-inkscape-font-specification:'Montserrat Heavy';fill:#ffffff;fill-opacity:1;stroke-width:0.8199935"
         id="path874"
         inkscape:connector-curvature="0" />
      <path
         d="m 87.53725,3.048897 -8.96,28 h -10.12 l -4.52,-14.96 -4.76,14.96 h -10.12 l -8.96,-28 h 9.72 l 4.88,15.92 5.16,-15.92 h 8.68 l 4.88,16.12 5.16,-16.12 z"
         style="font-style:normal;font-variant:normal;font-weight:900;font-stretch:normal;font-size:40px;font-family:Montserrat;-inkscape-font-specification:'Montserrat Heavy';fill:#ffffff;fill-opacity:1;stroke-width:0.8199935"
         id="path876"
         inkscape:connector-curvature="0" />
      <path
         d="m 89.617173,3.048897 h 9.44 v 20.68 h 12.639997 v 7.32 H 89.617173 Z"
         style="font-style:normal;font-variant:normal;font-weight:900;font-stretch:normal;font-size:40px;font-family:Montserrat;-inkscape-font-specification:'Montserrat Heavy';fill:#ffffff;fill-opacity:1;stroke-width:0.8199935"
         id="path878"
         inkscape:connector-curvature="0" />
      <path
         d="m 133.77705,26.168897 h -10.64 l -1.88,4.88 h -9.6 l 12.24,-28 h 9.28 l 12.24,28 h -9.76 z m -2.6,-6.8 -2.72,-7.04 -2.72,7.04 z"
         style="font-style:normal;font-variant:normal;font-weight:900;font-stretch:normal;font-size:40px;font-family:Montserrat;-inkscape-font-specification:'Montserrat Heavy';fill:#ffffff;fill-opacity:1;stroke-width:0.8199935"
         id="path880"
         inkscape:connector-curvature="0" />
      <path
         d="m 151.61697,10.368897 h -8.2 v -7.32 h 25.84 v 7.32 h -8.2 v 20.68 h -9.44 z"
         style="font-style:normal;font-variant:normal;font-weight:900;font-stretch:normal;font-size:40px;font-family:Montserrat;-inkscape-font-specification:'Montserrat Heavy';fill:#ffffff;fill-opacity:1;stroke-width:0.8199935"
         id="path882"
         inkscape:connector-curvature="0" />
      <path
         d="m 171.69695,3.048897 h 9.44 v 28 h -9.44 z"
         style="font-style:normal;font-variant:normal;font-weight:900;font-stretch:normal;font-size:40px;font-family:Montserrat;-inkscape-font-specification:'Montserrat Heavy';fill:#ffffff;fill-opacity:1;stroke-width:0.8199935"
         id="path884"
         inkscape:connector-curvature="0" />
      <path
         d="m 213.29689,3.048897 v 28 h -7.76 l -10.64,-12.72 v 12.72 h -9.2 v -28 h 7.76 l 10.64,12.72 v -12.72 z"
         style="font-style:normal;font-variant:normal;font-weight:900;font-stretch:normal;font-size:40px;font-family:Montserrat;-inkscape-font-specification:'Montserrat Heavy';fill:#ffffff;fill-opacity:1;stroke-width:0.8199935"
         id="path886"
         inkscape:connector-curvature="0" />
      <path
         d="m 232.53684,31.688897 q -4.52,0 -8.12,-1.88 -3.6,-1.88 -5.64,-5.2 -2.04,-3.36 -2.04,-7.56 0,-4.2 2.04,-7.52 2.04,-3.36 5.64,-5.24 3.6,-1.88 8.12,-1.88 4.52,0 8.12,1.88 3.6,1.88 5.64,5.24 2.04,3.32 2.04,7.52 0,4.2 -2.04,7.56 -2.04,3.32 -5.64,5.2 -3.6,1.88 -8.12,1.88 z m 0,-7.64 q 1.76,0 3.16,-0.84 1.44,-0.88 2.28,-2.44 0.84,-1.6 0.84,-3.72 0,-2.12 -0.84,-3.68 -0.84,-1.6 -2.28,-2.44 -1.4,-0.88 -3.16,-0.88 -1.76,0 -3.2,0.88 -1.4,0.84 -2.24,2.44 -0.84,1.56 -0.84,3.68 0,2.12 0.84,3.72 0.84,1.56 2.24,2.44 1.44,0.84 3.2,0.84 z"
         style="font-style:normal;font-variant:normal;font-weight:900;font-stretch:normal;font-size:40px;font-family:Montserrat;-inkscape-font-specification:'Montserrat Heavy';fill:#ffffff;fill-opacity:1;stroke-width:0.8199935"
         id="path888"
         inkscape:connector-curvature="0" />
    </g>
    <text
       xml:space="preserve"
       style="font-style:normal;font-variant:normal;font-weight:bold;font-stretch:normal;font-size:6.66666651px;line-height:1.25;font-family:sans-serif;-inkscape-font-specification:'sans-serif Bold';letter-spacing:0px;word-spacing:0px;fill:#000000;fill-opacity:1;stroke:none"
       x="373.57144"
       y="404.2991"
       id="text846"><tspan
         sodipodi:role="line"
         id="tspan844"
         x="373.57144"
         y="404.2991">r</tspan></text>
  </g>
</svg>
