<?xml version="1.0" encoding="UTF-8" standalone="no"?>
<!-- Created with Inkscape (http://www.inkscape.org/) -->

<svg
   xmlns:dc="http://purl.org/dc/elements/1.1/"
   xmlns:cc="http://creativecommons.org/ns#"
   xmlns:rdf="http://www.w3.org/1999/02/22-rdf-syntax-ns#"
   xmlns:svg="http://www.w3.org/2000/svg"
   xmlns="http://www.w3.org/2000/svg"
   xmlns:sodipodi="http://sodipodi.sourceforge.net/DTD/sodipodi-0.dtd"
   xmlns:inkscape="http://www.inkscape.org/namespaces/inkscape"
   version="1.1"
   id="svg2"
   xml:space="preserve"
   width="578.10663"
   height="655.63733"
   viewBox="0 0 578.10663 655.63733"
   sodipodi:docname="html5_logo_seeklogo.com.svg"
   inkscape:version="0.92.5 (2060ec1f9f, 2020-04-08)"><metadata
     id="metadata8"><rdf:RDF><cc:Work
         rdf:about=""><dc:format>image/svg+xml</dc:format><dc:type
           rdf:resource="http://purl.org/dc/dcmitype/StillImage" /><dc:title></dc:title></cc:Work></rdf:RDF></metadata><defs
     id="defs6" /><sodipodi:namedview
     pagecolor="#ffffff"
     bordercolor="#666666"
     borderopacity="1"
     objecttolerance="10"
     gridtolerance="10"
     guidetolerance="10"
     inkscape:pageopacity="0"
     inkscape:pageshadow="2"
     inkscape:window-width="1366"
     inkscape:window-height="704"
     id="namedview4"
     showgrid="false"
     inkscape:pagecheckerboard="true"
     inkscape:zoom="0.28921569"
     inkscape:cx="285.59572"
     inkscape:cy="407.99998"
     inkscape:window-x="0"
     inkscape:window-y="27"
     inkscape:window-maximized="1"
     inkscape:current-layer="g10"
     fit-margin-top="0"
     fit-margin-left="0"
     fit-margin-right="0"
     fit-margin-bottom="0" /><g
     id="g10"
     inkscape:groupmode="layer"
     inkscape:label="ink_ext_XXXXXX"
     transform="matrix(1.3333333,0,0,-1.3333333,0,655.63732)"><g
       id="g12"
       transform="scale(0.1)"><path
         d="M 394.578,491.551 0,4917.28 H 4335.8 L 3940.79,492.25 2165.24,0 394.578,491.551"
         style="fill:#e53d20;fill-opacity:1;fill-rule:nonzero;stroke:none"
         id="path14"
         inkscape:connector-curvature="0" /><path
         d="M 2167.9,376.25 3602.63,774.012 3940.19,4555.41 H 2167.9 V 376.25"
         style="fill:#f15123;fill-opacity:1;fill-rule:nonzero;stroke:none"
         id="path16"
         inkscape:connector-curvature="0" /><path
         d="m 2167.9,2913.96 h -718.26 l -49.61,555.84 h 767.87 v 542.8 h -1.88 -1359.204 l 12.997,-145.62 133.41,-1495.8 H 2167.9 v 542.78"
         style="fill:#ededed;fill-opacity:1;fill-rule:nonzero;stroke:none"
         id="path18"
         inkscape:connector-curvature="0" /><path
         d="m 2167.9,1504.27 -2.38,-0.64 -604.51,163.24 -38.66,432.9 H 1228.61 977.469 l 76.051,-852.27 1111.88,-308.66 2.5,0.691 v 564.739"
         style="fill:#ededed;fill-opacity:1;fill-rule:nonzero;stroke:none"
         id="path20"
         inkscape:connector-curvature="0" /><path
         d="m 2166.02,2913.96 v -542.78 h 668.39 l -63,-703.97 -605.39,-163.4 V 939.102 l 1112.76,308.398 8.16,91.7 127.56,1429.01 13.24,145.75 H 3281.47 2166.02"
         style="fill:#ffffff;fill-opacity:1;fill-rule:nonzero;stroke:none"
         id="path30"
         inkscape:connector-curvature="0" /><path
         d="m 2166.02,4012.6 v -542.8 h 1309.37 v 0 h 1.74 l 10.89,122.01 24.73,275.17 12.98,145.62 H 2166.02"
         style="fill:#ffffff;fill-opacity:1;fill-rule:nonzero;stroke:none"
         id="path32"
         inkscape:connector-curvature="0" /></g></g></svg>